<mxfile host="app.diagrams.net" modified="2020-08-20T08:51:05.947Z" agent="5.0 (Macintosh; Intel Mac OS X 10_14_6) AppleWebKit/537.36 (KHTML, like Gecko) Chrome/84.0.4147.125 Safari/537.36" etag="rv0JwCcMhZPlKkukBTjM" version="13.0.2" type="github">
  <diagram id="cuWH-vL1Xm5EpCs3p67p" name="Page-1">
    <mxGraphModel dx="905" dy="489" grid="1" gridSize="10" guides="1" tooltips="1" connect="1" arrows="1" fold="1" page="1" pageScale="1" pageWidth="850" pageHeight="1100" math="0" shadow="0">
      <root>
        <mxCell id="0" />
        <mxCell id="1" parent="0" />
        <mxCell id="i2wo1Va0bK39pvy4r5e9-12" style="edgeStyle=orthogonalEdgeStyle;rounded=0;orthogonalLoop=1;jettySize=auto;html=1;" parent="1" source="i2wo1Va0bK39pvy4r5e9-1" target="i2wo1Va0bK39pvy4r5e9-2" edge="1">
          <mxGeometry relative="1" as="geometry" />
        </mxCell>
        <mxCell id="i2wo1Va0bK39pvy4r5e9-1" value="Compound X Target&lt;br&gt;Matrix&lt;br&gt;(Incomplete)" style="whiteSpace=wrap;html=1;aspect=fixed;fillColor=#dae8fc;strokeColor=#6c8ebf;" parent="1" vertex="1">
          <mxGeometry x="13" y="513" width="127" height="127" as="geometry" />
        </mxCell>
        <mxCell id="i2wo1Va0bK39pvy4r5e9-8" style="edgeStyle=orthogonalEdgeStyle;rounded=0;orthogonalLoop=1;jettySize=auto;html=1;entryX=0;entryY=0.5;entryDx=0;entryDy=0;" parent="1" source="i2wo1Va0bK39pvy4r5e9-2" target="i2wo1Va0bK39pvy4r5e9-3" edge="1">
          <mxGeometry relative="1" as="geometry" />
        </mxCell>
        <mxCell id="i2wo1Va0bK39pvy4r5e9-9" style="edgeStyle=orthogonalEdgeStyle;rounded=0;orthogonalLoop=1;jettySize=auto;html=1;exitX=1;exitY=0.5;exitDx=0;exitDy=0;" parent="1" source="i2wo1Va0bK39pvy4r5e9-2" target="i2wo1Va0bK39pvy4r5e9-4" edge="1">
          <mxGeometry relative="1" as="geometry" />
        </mxCell>
        <mxCell id="i2wo1Va0bK39pvy4r5e9-2" value="Sub-Graph Pair&lt;br&gt;Extraction" style="rounded=1;whiteSpace=wrap;html=1;fillColor=#fff2cc;strokeColor=#d6b656;" parent="1" vertex="1">
          <mxGeometry x="170" y="550" width="100" height="55" as="geometry" />
        </mxCell>
        <mxCell id="i2wo1Va0bK39pvy4r5e9-6" value="training" style="edgeStyle=orthogonalEdgeStyle;rounded=0;orthogonalLoop=1;jettySize=auto;html=1;exitX=1;exitY=0.5;exitDx=0;exitDy=0;entryX=0;entryY=0.5;entryDx=0;entryDy=0;" parent="1" source="i2wo1Va0bK39pvy4r5e9-3" target="i2wo1Va0bK39pvy4r5e9-5" edge="1">
          <mxGeometry relative="1" as="geometry" />
        </mxCell>
        <mxCell id="i2wo1Va0bK39pvy4r5e9-18" style="edgeStyle=orthogonalEdgeStyle;rounded=0;orthogonalLoop=1;jettySize=auto;html=1;exitX=0.5;exitY=0;exitDx=0;exitDy=0;entryX=0;entryY=0.5;entryDx=0;entryDy=0;" parent="1" source="i2wo1Va0bK39pvy4r5e9-3" target="i2wo1Va0bK39pvy4r5e9-17" edge="1">
          <mxGeometry relative="1" as="geometry" />
        </mxCell>
        <mxCell id="i2wo1Va0bK39pvy4r5e9-3" value="&lt;span&gt;Compound X Target&lt;/span&gt;&lt;br&gt;&lt;span&gt;sub-graph pairs&lt;/span&gt;&lt;br&gt;&lt;span&gt;(known)&lt;/span&gt;" style="whiteSpace=wrap;html=1;aspect=fixed;fillColor=#d5e8d4;strokeColor=#82b366;" parent="1" vertex="1">
          <mxGeometry x="313" y="450" width="110" height="110" as="geometry" />
        </mxCell>
        <mxCell id="i2wo1Va0bK39pvy4r5e9-14" style="edgeStyle=orthogonalEdgeStyle;rounded=0;orthogonalLoop=1;jettySize=auto;html=1;exitX=1;exitY=0.5;exitDx=0;exitDy=0;entryX=0;entryY=0.5;entryDx=0;entryDy=0;" parent="1" source="i2wo1Va0bK39pvy4r5e9-4" target="i2wo1Va0bK39pvy4r5e9-10" edge="1">
          <mxGeometry relative="1" as="geometry" />
        </mxCell>
        <mxCell id="i2wo1Va0bK39pvy4r5e9-4" value="&lt;span&gt;Compound X Target&lt;/span&gt;&lt;br&gt;&lt;span&gt;sub-graph pairs&lt;/span&gt;&lt;br&gt;&lt;span&gt;(unknown)&lt;/span&gt;" style="whiteSpace=wrap;html=1;aspect=fixed;fillColor=#e1d5e7;strokeColor=#9673a6;" parent="1" vertex="1">
          <mxGeometry x="315" y="590" width="110" height="110" as="geometry" />
        </mxCell>
        <mxCell id="i2wo1Va0bK39pvy4r5e9-13" style="edgeStyle=orthogonalEdgeStyle;rounded=0;orthogonalLoop=1;jettySize=auto;html=1;exitX=0.5;exitY=1;exitDx=0;exitDy=0;" parent="1" source="i2wo1Va0bK39pvy4r5e9-5" target="i2wo1Va0bK39pvy4r5e9-10" edge="1">
          <mxGeometry relative="1" as="geometry" />
        </mxCell>
        <mxCell id="i2wo1Va0bK39pvy4r5e9-5" value="Network-based&lt;br&gt;HAG-Net" style="rounded=1;whiteSpace=wrap;html=1;fillColor=#fff2cc;strokeColor=#d6b656;" parent="1" vertex="1">
          <mxGeometry x="487" y="475" width="120" height="60" as="geometry" />
        </mxCell>
        <mxCell id="i2wo1Va0bK39pvy4r5e9-16" value="prediction" style="edgeStyle=orthogonalEdgeStyle;rounded=0;orthogonalLoop=1;jettySize=auto;html=1;exitX=1;exitY=0.5;exitDx=0;exitDy=0;" parent="1" source="i2wo1Va0bK39pvy4r5e9-10" target="i2wo1Va0bK39pvy4r5e9-15" edge="1">
          <mxGeometry relative="1" as="geometry" />
        </mxCell>
        <mxCell id="i2wo1Va0bK39pvy4r5e9-10" value="Trained&lt;br&gt;Models" style="rounded=1;whiteSpace=wrap;html=1;fillColor=#ffe6cc;strokeColor=#d79b00;" parent="1" vertex="1">
          <mxGeometry x="494.5" y="620" width="105" height="50" as="geometry" />
        </mxCell>
        <mxCell id="i2wo1Va0bK39pvy4r5e9-19" style="edgeStyle=orthogonalEdgeStyle;rounded=0;orthogonalLoop=1;jettySize=auto;html=1;exitX=0.5;exitY=0;exitDx=0;exitDy=0;" parent="1" source="i2wo1Va0bK39pvy4r5e9-15" target="i2wo1Va0bK39pvy4r5e9-17" edge="1">
          <mxGeometry relative="1" as="geometry" />
        </mxCell>
        <mxCell id="i2wo1Va0bK39pvy4r5e9-15" value="&lt;span&gt;Compound X Target&lt;/span&gt;&lt;br&gt;&lt;span&gt;sub-graph pairs&lt;/span&gt;&lt;br&gt;&lt;span&gt;(inferred)&lt;/span&gt;" style="whiteSpace=wrap;html=1;aspect=fixed;fillColor=#d5e8d4;strokeColor=#82b366;" parent="1" vertex="1">
          <mxGeometry x="679" y="590" width="110" height="110" as="geometry" />
        </mxCell>
        <mxCell id="i2wo1Va0bK39pvy4r5e9-34" style="edgeStyle=orthogonalEdgeStyle;rounded=0;orthogonalLoop=1;jettySize=auto;html=1;exitX=0.25;exitY=0;exitDx=0;exitDy=0;entryX=0.25;entryY=1;entryDx=0;entryDy=0;" parent="1" source="i2wo1Va0bK39pvy4r5e9-17" target="i2wo1Va0bK39pvy4r5e9-33" edge="1">
          <mxGeometry relative="1" as="geometry" />
        </mxCell>
        <mxCell id="i2wo1Va0bK39pvy4r5e9-41" value="return" style="edgeLabel;html=1;align=center;verticalAlign=middle;resizable=0;points=[];" parent="i2wo1Va0bK39pvy4r5e9-34" vertex="1" connectable="0">
          <mxGeometry x="0.005" y="5" relative="1" as="geometry">
            <mxPoint x="4" y="5" as="offset" />
          </mxGeometry>
        </mxCell>
        <mxCell id="i2wo1Va0bK39pvy4r5e9-17" value="Compound X Target&lt;br&gt;Matrix&lt;br&gt;(Complete Dataset)" style="whiteSpace=wrap;html=1;aspect=fixed;fillColor=#d5e8d4;strokeColor=#82b366;" parent="1" vertex="1">
          <mxGeometry x="670.5" y="330" width="127" height="127" as="geometry" />
        </mxCell>
        <mxCell id="i2wo1Va0bK39pvy4r5e9-20" value="" style="shape=link;html=1;" parent="1" edge="1">
          <mxGeometry width="50" height="50" relative="1" as="geometry">
            <mxPoint x="10" y="280" as="sourcePoint" />
            <mxPoint x="820" y="280" as="targetPoint" />
          </mxGeometry>
        </mxCell>
        <mxCell id="i2wo1Va0bK39pvy4r5e9-21" value="OFF-Line" style="text;html=1;align=center;verticalAlign=middle;resizable=0;points=[];autosize=1;" parent="1" vertex="1">
          <mxGeometry x="20" y="310" width="70" height="20" as="geometry" />
        </mxCell>
        <mxCell id="i2wo1Va0bK39pvy4r5e9-22" value="Actor" style="shape=umlActor;verticalLabelPosition=bottom;labelBackgroundColor=#ffffff;verticalAlign=top;html=1;outlineConnect=0;" parent="1" vertex="1">
          <mxGeometry x="370" y="180" width="30" height="60" as="geometry" />
        </mxCell>
        <mxCell id="i2wo1Va0bK39pvy4r5e9-35" style="edgeStyle=orthogonalEdgeStyle;rounded=0;orthogonalLoop=1;jettySize=auto;html=1;exitX=0.75;exitY=1;exitDx=0;exitDy=0;entryX=0.75;entryY=0;entryDx=0;entryDy=0;" parent="1" source="i2wo1Va0bK39pvy4r5e9-33" target="i2wo1Va0bK39pvy4r5e9-17" edge="1">
          <mxGeometry relative="1" as="geometry" />
        </mxCell>
        <mxCell id="i2wo1Va0bK39pvy4r5e9-40" value="search" style="edgeLabel;html=1;align=center;verticalAlign=middle;resizable=0;points=[];" parent="i2wo1Va0bK39pvy4r5e9-35" vertex="1" connectable="0">
          <mxGeometry x="0.2518" y="1" relative="1" as="geometry">
            <mxPoint as="offset" />
          </mxGeometry>
        </mxCell>
        <mxCell id="i2wo1Va0bK39pvy4r5e9-42" value="Return" style="edgeStyle=orthogonalEdgeStyle;rounded=0;orthogonalLoop=1;jettySize=auto;html=1;exitX=0;exitY=0.75;exitDx=0;exitDy=0;fillColor=#d5e8d4;strokeColor=#000000;" parent="1" source="i2wo1Va0bK39pvy4r5e9-33" target="i2wo1Va0bK39pvy4r5e9-39" edge="1">
          <mxGeometry relative="1" as="geometry" />
        </mxCell>
        <mxCell id="i2wo1Va0bK39pvy4r5e9-33" value="DME&lt;br&gt;Sever" style="shape=process;whiteSpace=wrap;html=1;backgroundOutline=1;fillColor=#f5f5f5;strokeColor=#666666;fontColor=#333333;" parent="1" vertex="1">
          <mxGeometry x="670" y="160" width="127.5" height="90" as="geometry" />
        </mxCell>
        <mxCell id="i2wo1Va0bK39pvy4r5e9-37" style="edgeStyle=orthogonalEdgeStyle;rounded=0;orthogonalLoop=1;jettySize=auto;html=1;entryX=0;entryY=0.25;entryDx=0;entryDy=0;" parent="1" source="i2wo1Va0bK39pvy4r5e9-36" target="i2wo1Va0bK39pvy4r5e9-33" edge="1">
          <mxGeometry relative="1" as="geometry" />
        </mxCell>
        <mxCell id="i2wo1Va0bK39pvy4r5e9-38" value="Search" style="edgeLabel;html=1;align=center;verticalAlign=middle;resizable=0;points=[];" parent="i2wo1Va0bK39pvy4r5e9-37" vertex="1" connectable="0">
          <mxGeometry x="-0.1674" y="3" relative="1" as="geometry">
            <mxPoint as="offset" />
          </mxGeometry>
        </mxCell>
        <mxCell id="i2wo1Va0bK39pvy4r5e9-36" value="Compound X Target&lt;br&gt;Pair" style="rounded=1;whiteSpace=wrap;html=1;fillColor=#f8cecc;strokeColor=#b85450;" parent="1" vertex="1">
          <mxGeometry x="450" y="147" width="110" height="40" as="geometry" />
        </mxCell>
        <mxCell id="i2wo1Va0bK39pvy4r5e9-39" value="Compound X Target&lt;br&gt;Interaction Score" style="rounded=1;whiteSpace=wrap;html=1;fillColor=#d5e8d4;strokeColor=#82b366;" parent="1" vertex="1">
          <mxGeometry x="453" y="231" width="110" height="40" as="geometry" />
        </mxCell>
        <mxCell id="IZAwHc3OZvYbP08dGhZI-1" value="ON-Line" style="text;html=1;align=center;verticalAlign=middle;resizable=0;points=[];autosize=1;" vertex="1" parent="1">
          <mxGeometry x="25" y="230" width="60" height="20" as="geometry" />
        </mxCell>
      </root>
    </mxGraphModel>
  </diagram>
</mxfile>
